<?xml version="1.0" encoding="UTF-8"?>
<svg width="20px" height="20px" viewBox="0 0 25 25" version="1.1" xmlns="http://www.w3.org/2000/svg" xmlns:xlink="http://www.w3.org/1999/xlink">
    <!-- Generator: Sketch 52.6 (67491) - http://www.bohemiancoding.com/sketch -->
    <title>btc</title>
    <desc>Created with Sketch.</desc>
    <g id="Page-1" stroke="none" stroke-width="1" fill="none" fill-rule="evenodd">
        <g id="btc">
            <circle id="Oval" fill="#F09242" cx="12.5" cy="12.5" r="12.5"></circle>
            <path d="M17.9873,9.54464 C17.8004,7.58259 16.1118,6.92299 13.98263,6.73214 L13.98263,4.0100446 L12.34071,4.0100446 L12.34071,6.66183 C11.90688,6.66183 11.46303,6.66183 11.00583,6.67857 L11.00583,4 L9.35724,4 L9.35724,6.73214 L8.30602,6.73214 L6.0233605,6.73214 L6.0233605,8.50335 C6.0233605,8.50335 7.24478,8.47991 7.22476,8.50335 C7.68601,8.44561 8.10863,8.76846 8.17587,9.22991 L8.17587,16.6931 C8.16643,16.8486 8.09565,16.9939 7.97917,17.097 C7.86269,17.2 7.71011,17.2523 7.55514,17.2422 C7.57517,17.2623 6.353745,17.2422 6.353745,17.2422 L6,19.221 L8.14917,19.221 L9.33054,19.221 L9.33054,22 L11.00583,22 L11.00583,19.2612 L12.34071,19.2612 L12.34071,22 L14.00932,22 L14.00932,19.2377 C16.7892,19.0804 18.7315,18.3772 18.9751,15.7623 C19.172,13.65625 18.1842,12.7154 16.6057,12.3337 C17.5635,11.84487 18.1642,10.99442 18.024,9.54464 L17.9873,9.54464 Z M15.67793,15.4342 C15.67793,17.3233 12.72015,17.2792 11.36845,17.259 C11.24681,17.2572 11.13818,17.2556 11.04587,17.2556 L11.04587,13.60603 C11.15838,13.60637 11.29537,13.60346 11.45074,13.60017 C12.83474,13.57084 15.67793,13.5106 15.67793,15.4342 Z M11.31379,11.93845 C12.44339,11.95701 14.90704,11.99748 14.90704,10.28125 C14.90704,8.52874 12.53714,8.59065 11.38034,8.62086 C11.25087,8.62425 11.13659,8.62723 11.04254,8.62723 L11.04254,11.93527 C11.12013,11.93527 11.21149,11.93677 11.31379,11.93845 Z" id="Shape" fill="#FFFFFF"></path>
        </g>
    </g>
</svg>